<?xml version="1.0" encoding="UTF-8" standalone="no"?>
<!-- Created with Inkscape (http://www.inkscape.org/) -->

<svg
   xmlns:dc="http://purl.org/dc/elements/1.1/"
   xmlns:cc="http://creativecommons.org/ns#"
   xmlns:rdf="http://www.w3.org/1999/02/22-rdf-syntax-ns#"
   xmlns:svg="http://www.w3.org/2000/svg"
   xmlns="http://www.w3.org/2000/svg"
   xmlns:sodipodi="http://sodipodi.sourceforge.net/DTD/sodipodi-0.dtd"
   xmlns:inkscape="http://www.inkscape.org/namespaces/inkscape"
   width="1000"
   height="1000"
   id="svg3173"
   version="1.1"
   inkscape:version="0.48.3.1 r9886"
   sodipodi:docname="yan.svg"
   inkscape:export-filename="/home/alex/buddhist-dictionary/web/images/yan.png"
   inkscape:export-xdpi="18.005705"
   inkscape:export-ydpi="18.005705">
  <title
     id="title2851">Language Radical</title>
  <defs
     id="defs3175">
    <inkscape:perspective
       sodipodi:type="inkscape:persp3d"
       inkscape:vp_x="0 : 526.18109 : 1"
       inkscape:vp_y="0 : 1000 : 0"
       inkscape:vp_z="744.09448 : 526.18109 : 1"
       inkscape:persp3d-origin="372.04724 : 350.78739 : 1"
       id="perspective3181" />
    <inkscape:perspective
       id="perspective3191"
       inkscape:persp3d-origin="0.5 : 0.33333333 : 1"
       inkscape:vp_z="1 : 0.5 : 1"
       inkscape:vp_y="0 : 1000 : 0"
       inkscape:vp_x="0 : 0.5 : 1"
       sodipodi:type="inkscape:persp3d" />
    <inkscape:perspective
       id="perspective4006"
       inkscape:persp3d-origin="0.5 : 0.33333333 : 1"
       inkscape:vp_z="1 : 0.5 : 1"
       inkscape:vp_y="0 : 1000 : 0"
       inkscape:vp_x="0 : 0.5 : 1"
       sodipodi:type="inkscape:persp3d" />
    <inkscape:perspective
       id="perspective4034"
       inkscape:persp3d-origin="0.5 : 0.33333333 : 1"
       inkscape:vp_z="1 : 0.5 : 1"
       inkscape:vp_y="0 : 1000 : 0"
       inkscape:vp_x="0 : 0.5 : 1"
       sodipodi:type="inkscape:persp3d" />
    <inkscape:perspective
       id="perspective4081"
       inkscape:persp3d-origin="0.5 : 0.33333333 : 1"
       inkscape:vp_z="1 : 0.5 : 1"
       inkscape:vp_y="0 : 1000 : 0"
       inkscape:vp_x="0 : 0.5 : 1"
       sodipodi:type="inkscape:persp3d" />
    <inkscape:perspective
       id="perspective4147"
       inkscape:persp3d-origin="0.5 : 0.33333333 : 1"
       inkscape:vp_z="1 : 0.5 : 1"
       inkscape:vp_y="0 : 1000 : 0"
       inkscape:vp_x="0 : 0.5 : 1"
       sodipodi:type="inkscape:persp3d" />
    <inkscape:perspective
       id="perspective3807"
       inkscape:persp3d-origin="0.5 : 0.33333333 : 1"
       inkscape:vp_z="1 : 0.5 : 1"
       inkscape:vp_y="0 : 1000 : 0"
       inkscape:vp_x="0 : 0.5 : 1"
       sodipodi:type="inkscape:persp3d" />
    <inkscape:perspective
       id="perspective3019"
       inkscape:persp3d-origin="0.5 : 0.33333333 : 1"
       inkscape:vp_z="1 : 0.5 : 1"
       inkscape:vp_y="0 : 1000 : 0"
       inkscape:vp_x="0 : 0.5 : 1"
       sodipodi:type="inkscape:persp3d" />
  </defs>
  <sodipodi:namedview
     id="base"
     pagecolor="#ffffff"
     bordercolor="#666666"
     borderopacity="1.0"
     inkscape:pageopacity="0.0"
     inkscape:pageshadow="2"
     inkscape:zoom="0.49497475"
     inkscape:cx="420.34725"
     inkscape:cy="524.87745"
     inkscape:document-units="px"
     inkscape:current-layer="layer1"
     showgrid="false"
     inkscape:window-width="1301"
     inkscape:window-height="744"
     inkscape:window-x="65"
     inkscape:window-y="24"
     inkscape:window-maximized="1" />
  <metadata
     id="metadata3178">
    <rdf:RDF>
      <cc:Work
         rdf:about="">
        <dc:format>image/svg+xml</dc:format>
        <dc:type
           rdf:resource="http://purl.org/dc/dcmitype/StillImage" />
        <dc:title>Language Radical</dc:title>
        <dc:date>2010-07-21</dc:date>
        <dc:creator>
          <cc:Agent>
            <dc:title>Alex Amies</dc:title>
          </cc:Agent>
        </dc:creator>
        <dc:rights>
          <cc:Agent>
            <dc:title>@ Alex Amies 2010</dc:title>
          </cc:Agent>
        </dc:rights>
        <dc:publisher>
          <cc:Agent>
            <dc:title>chinesenotes.com</dc:title>
          </cc:Agent>
        </dc:publisher>
        <dc:source>Yan Qin Ceremonial Inscription</dc:source>
        <dc:language>Chinese 中文</dc:language>
        <dc:description>Tracing from Tang Dynasty Ceremonial Inscription by Yan Zhenqing 颜真卿 (709－785)</dc:description>
        <cc:license
           rdf:resource="http://creativecommons.org/licenses/by/3.0/" />
      </cc:Work>
      <cc:License
         rdf:about="http://creativecommons.org/licenses/by/3.0/">
        <cc:permits
           rdf:resource="http://creativecommons.org/ns#Reproduction" />
        <cc:permits
           rdf:resource="http://creativecommons.org/ns#Distribution" />
        <cc:requires
           rdf:resource="http://creativecommons.org/ns#Notice" />
        <cc:requires
           rdf:resource="http://creativecommons.org/ns#Attribution" />
        <cc:permits
           rdf:resource="http://creativecommons.org/ns#DerivativeWorks" />
      </cc:License>
    </rdf:RDF>
  </metadata>
  <g
     inkscape:label="Layer 1"
     inkscape:groupmode="layer"
     id="layer1"
     transform="translate(0,-52.362183)">
    <g
       id="g3772"
       transform="matrix(0.8583622,0,0,0.57843755,3.9394024,46.268054)">
      <g
         style="fill:none"
         id="g5975"
         transform="matrix(4.762395,0,0,4.762395,-2523.1017,68.412668)">
        <path
           id="path5906"
           transform="matrix(0.20997838,0,0,0.20997838,529.79681,-3.3702549)"
           d="m 323.34375,59.9375 c -7.74261,-0.103391 -15.89907,0.894027 -24.71875,3.09375 -9.35111,4.75479 -21.26871,9.23856 -24.5,20.3125 18.31527,42.78644 56.00554,74.39716 85,110.78125 4.41447,4.50253 9.9758,7.96274 16,10.09375 -75.30394,18.95282 -149.4275,41.9375 -223.78125,64.59375 -27.11865,0.76039 -54.50826,-1.5624 -81.46875,1.28125 -14.940728,1.44163 -27.072193,8.78886 -40,15.75 -0.972529,21.00176 22.200397,33.1073 31.0625,50.5625 7.509821,18.03218 30.772161,25.79663 47.25,14.8125 114.12313,-62.60439 239.89081,-91.40696 366.28125,-115.6875 18.67583,-0.88738 26.50014,-23.17397 19.46875,-38.34375 -3.48574,-13.55715 -22.89628,-12.45268 -34.5,-12.1875 -17.52435,3.51556 -34.94937,7.34167 -52.3125,11.40625 13.56307,-33.45593 7.58522,-85.75484 -20,-110.0625 C 365.91835,70.305599 346.57157,60.247672 323.34375,59.9375 z"
           style="fill:none;stroke:#000000;stroke-width:4.76239491px;stroke-linecap:butt;stroke-linejoin:miter;stroke-opacity:1"
           inkscape:connector-curvature="0" />
        <path
           sodipodi:nodetypes="cccccccc"
           style="fill:none;stroke:#000000;stroke-width:1px;stroke-linecap:butt;stroke-linejoin:miter;stroke-opacity:1"
           d="m 560.71428,85.933616 c -1.55876,3.574083 2.44704,6.332374 5.62894,7.437556 4.19069,1.862217 8.9072,0.53306 13.29963,0.06244 6.37672,-3.440097 13.16768,-9.095561 20.78109,-9.091206 4.79217,0.07041 9.09877,-3.242843 12.65508,-6.185839 0.26288,-4.002886 -2.05302,-4.506268 -5.31164,-5.716583 -2.71622,-0.76808 -4.6729,1.612564 -6.84251,2.738687 -12.53053,6.236392 -26.43715,8.918474 -40.21059,10.754941 z"
           id="path5912"
           inkscape:connector-curvature="0" />
        <path
           sodipodi:nodetypes="ccccccccc"
           style="fill:none;stroke:#000000;stroke-width:1px;stroke-linecap:butt;stroke-linejoin:miter;stroke-opacity:1"
           d="m 551.78571,117.36219 c -0.8355,5.30147 6.14129,9.073 10.14174,11.42857 3.09611,-0.23214 6.37573,0.4836 9.35459,-0.39541 13.31393,-5.02858 25.73567,-12.04142 38.88507,-17.43432 2.03988,0.0701 5.96972,0.2651 5.90432,-2.58991 0.47566,-3.35537 -3.4409,-5.10769 -6.40457,-5.17149 -13.95901,3.15111 -27.0217,9.37281 -39.66686,15.9483 -3.6961,-0.30661 -7.55014,0.14955 -11.03682,-1.36629 -2.43777,-1.22332 -4.66251,-0.92238 -7.17747,-0.41945 z"
           id="path5914"
           inkscape:connector-curvature="0" />
        <path
           id="path5916"
           transform="matrix(0.20997838,0,0,0.20997838,529.79681,-3.3702549)"
           d="m 398.96875,632.8125 c -12.49386,3.26634 -26.81413,9.87467 -28.40625,24.4375 -0.76653,4.41341 -1.54899,8.82286 -2.375,13.21875 -4.59494,-2.38858 -10.80813,-2.86851 -18.34375,-1.15625 -26.2076,5.14329 -49.05603,22.10362 -76.3125,18.875 -8.42872,-1.25651 -18.00839,-4.48331 -25.75,0.71875 -0.68431,0.51296 -1.3048,1.08235 -1.875,1.71875 -5.8397,18.84465 9.31873,37.82232 19.71875,52.75 17.01913,6.47286 37.42395,-6.47053 52.4375,-14.59375 10.08331,-10.59252 27.7974,-12.06206 41.5625,-17.65625 -10.82022,46.1426 -25.25116,91.19494 -43.875,134.90625 -27.00707,-5.79119 -56.19918,0.84104 -83.40625,4.34375 -0.31212,0.0999 -0.62491,0.18405 -0.9375,0.28125 C 223.55427,791.2239 214.6132,733.04162 190.03125,677.9375 176.3868,666.13524 160.35502,658.37456 143.84375,651.5 c -8.16646,25.02396 -13.40808,50.73783 -4.0625,76 10.31659,32.62074 19.57572,65.63632 30.78125,97.9375 5.78192,13.72282 12.28643,23.53412 21.15625,31.625 -6.968,0.32579 -13.88267,0.35918 -20.65625,0.25 -1.52949,6.25774 -9.1002,11.09053 -6.25,18.1875 11.45013,16.37273 28.19432,42.90414 49.28125,46.78125 26.8758,-20.84729 68.52585,-18.68745 101.75,-27.59375 3.78029,5.39253 8.38391,10.35266 13.375,15.34375 10.61481,-2.02869 23.62102,-0.83314 29.875,-11.6875 52.4203,-62.20478 79.81167,-138.78525 92.59375,-217.90625 -13.3678,-25.64007 -26.78994,-37.90167 -52.71875,-47.625 z"
           style="fill:none;stroke:#000000;stroke-width:4.76239491px;stroke-linecap:butt;stroke-linejoin:miter;stroke-opacity:1"
           inkscape:connector-curvature="0" />
      </g>
      <path
         transform="translate(0,52.362183)"
         inkscape:connector-curvature="0"
         id="path2996"
         d="m 77.778782,349.00666 c -3.625454,-1.93383 -9.87971,-8.48698 -13.898348,-14.56254 -4.018637,-6.07556 -10.228404,-14.22846 -13.799485,-18.11755 -8.214948,-8.9465 -14.274617,-17.89457 -16.100875,-23.77554 -1.27373,-4.1017 -0.04127,-5.22925 11.743553,-10.74404 17.004623,-7.95741 30.920101,-9.8368 73.202513,-9.8865 l 34.55563,-0.0406 50.29718,-15.24858 c 61.02837,-18.50194 109.52312,-32.46143 147.27184,-42.39301 15.55634,-4.09283 29.04685,-7.90213 29.9789,-8.4651 0.93203,-0.56297 -2.75426,-3.56445 -8.19179,-6.66995 -5.43753,-3.1055 -13.13843,-9.5932 -17.1131,-14.41711 -3.97469,-4.82391 -16.94603,-19.68039 -28.82523,-33.0144 -22.12088,-24.82997 -44.54704,-55.912311 -46.79048,-64.850979 -4.02641,-16.042497 34.23956,-28.409086 62.49207,-20.195854 12.76399,3.710592 32.42867,14.596933 42.7721,23.678597 16.25427,14.271436 26.67868,45.370806 24.62629,73.468166 -0.65019,8.90139 -2.69042,20.55201 -4.53381,25.89028 -1.84338,5.33827 -3.02209,10.02372 -2.61932,10.4121 0.40277,0.38839 12.55108,-1.90487 26.99626,-5.09612 14.44519,-3.19126 31.98739,-5.83115 38.9827,-5.86642 10.80067,-0.0545 13.4542,0.67132 17.59552,4.81264 9.28389,9.28389 9.07378,21.09036 -0.55716,31.30866 -5.11769,5.42981 -9.21129,6.59933 -57.03121,16.29349 -131.21685,26.60059 -205.66311,50.02134 -292.94423,92.16014 -23.79506,11.4881 -41.79609,18.98371 -45.456869,18.92819 -3.333503,-0.0505 -9.027196,-1.67412 -12.652649,-3.60794 l 0,0 z"
         style="fill:#000000;fill-opacity:1;stroke:#000000;stroke-width:6.06091499;stroke-miterlimit:4;stroke-opacity:1;stroke-dasharray:none" />
      <path
         transform="translate(0,52.362183)"
         inkscape:connector-curvature="0"
         id="path2998"
         d="m 180.02021,458.97289 c -11.06239,-3.95159 -25.6039,-12.96729 -27.93232,-17.31797 -1.1316,-2.11443 -2.05746,-6.03925 -2.05746,-8.72183 0,-4.60025 1.00459,-5.01504 17.67767,-7.29897 76.09125,-10.42322 140.81536,-30.18953 186.37314,-56.91711 9.34753,-5.48396 21.7162,-4.29017 31.30184,3.02114 9.40933,7.17686 9.31763,13.16375 -0.32337,21.11067 -14.87645,12.26243 -30.13172,18.71232 -51.23448,21.66184 -26.00336,3.63447 -37.83439,8.18167 -70.65771,27.15695 -23.43312,13.54677 -29.32025,16.07383 -41.80325,17.9441 -18.91999,2.83469 -32.19422,2.62958 -41.34406,-0.63882 l 0,0 z"
         style="fill:#000000;fill-opacity:1;stroke:#000000;stroke-width:6.06091499;stroke-miterlimit:4;stroke-opacity:1;stroke-dasharray:none" />
      <path
         transform="translate(0,52.362183)"
         inkscape:connector-curvature="0"
         id="path3000"
         d="m 136.50898,614.68772 c -15.89069,-10.82572 -28.90496,-26.10226 -28.90496,-33.92951 0,-3.25839 1.54107,-3.80507 10.60661,-3.76261 5.83363,0.0273 15.63473,1.73326 21.78023,3.79097 6.1455,2.05771 20.23713,4.37352 31.31473,5.14626 l 20.14109,1.40497 41.41626,-20.12845 c 64.29835,-31.24924 129.62051,-55.30638 149.9011,-55.20626 13.48317,0.0666 23.84514,7.76148 23.84514,17.70771 0,7.96001 -4.21444,10.86963 -15.74406,10.86963 -8.73388,0 -34.57734,10.85617 -103.45394,43.45829 -22.77894,10.78221 -53.40954,24.50688 -68.06799,30.49927 -26.11837,10.67722 -27.05607,10.89526 -46.85649,10.89526 l -20.20476,0 -15.77296,-10.74553 z"
         style="fill:#000000;fill-opacity:1;stroke:#000000;stroke-width:6.06091499;stroke-miterlimit:4;stroke-opacity:1;stroke-dasharray:none" />
      <path
         transform="translate(0,52.362183)"
         inkscape:connector-curvature="0"
         id="path3002"
         d="m 201.32103,911.81149 c -9.64081,-6.47572 -33.07256,-34.41824 -33.09587,-39.46702 -0.007,-1.42805 1.45628,-4.83732 3.25083,-7.57615 2.87585,-4.38909 4.7199,-4.97968 15.5486,-4.97968 l 12.2858,0 -6.2182,-6.56599 c -9.74572,-10.29083 -16.79431,-22.98236 -23.19627,-41.76668 -13.11721,-38.48792 -30.02697,-95.91948 -31.21295,-106.01024 -1.26047,-10.72469 3.74203,-42.78253 7.23458,-46.36184 2.11445,-2.16696 17.08272,4.42034 30.93073,13.61213 10.22503,6.78699 11.03448,7.99536 18.01524,26.89385 13.15219,35.6059 23.58304,80.89452 30.09443,130.66383 1.38755,10.60567 3.16546,20.32283 3.9509,21.59372 1.05858,1.71282 7.89712,1.42307 26.42968,-1.11981 14.2671,-1.95762 33.18915,-3.13428 44.07118,-2.74059 l 19.06961,0.68994 6.61706,-16.16244 c 12.70102,-31.02277 40.88994,-123.11864 38.43565,-125.57294 -1.70649,-1.70649 -34.39241,10.50889 -44.01911,16.45082 -19.09942,11.78884 -32.36202,17.15718 -42.43988,17.1785 -8.55955,0.0181 -9.74345,-0.60809 -14.37152,-7.60157 -10.24709,-15.4844 -13.91415,-24.71352 -13.28066,-33.42422 l 0.61467,-8.45195 23.23351,-0.0303 c 22.51125,-0.0294 24.10933,-0.3342 51.40669,-9.80446 23.84224,-8.27157 29.62478,-9.58155 37.61587,-8.52149 l 9.44269,1.25261 1.33319,-10.05013 c 2.42395,-18.27253 16.61111,-29.28479 31.42799,-24.39478 17.32155,5.71663 42.56486,32.04781 42.48653,44.31751 -0.0183,2.86593 -2.65636,17.02957 -5.86236,31.47475 -14.56698,65.63394 -40.90691,123.9812 -77.07597,170.73588 -11.2577,14.55248 -13.03802,15.9925 -22.6115,18.28914 l -10.39168,2.49291 -6.71146,-7.76401 -6.71145,-7.76399 -33.79102,5.65857 c -35.07818,5.87414 -53.56485,10.90957 -64.33407,17.52344 -3.46466,2.12779 -6.77118,3.86872 -7.34782,3.86872 -0.57664,0 -5.44728,-2.95469 -10.82364,-6.56599 z"
         style="fill:#000000;fill-opacity:1;stroke:#000000;stroke-width:6.06091499;stroke-miterlimit:4;stroke-opacity:1;stroke-dasharray:none" />
    </g>
  </g>
</svg>
