<?xml version="1.0" encoding="UTF-8" standalone="no"?>
<svg
   xmlns:dc="http://purl.org/dc/elements/1.1/"
   xmlns:cc="http://creativecommons.org/ns#"
   xmlns:rdf="http://www.w3.org/1999/02/22-rdf-syntax-ns#"
   xmlns:svg="http://www.w3.org/2000/svg"
   xmlns="http://www.w3.org/2000/svg"
   xmlns:sodipodi="http://sodipodi.sourceforge.net/DTD/sodipodi-0.dtd"
   xmlns:inkscape="http://www.inkscape.org/namespaces/inkscape"
   width="256"
   height="256"
   viewBox="0 0 67.733325 67.733335"
   version="1.1"
   id="svg867"
   inkscape:export-filename="/Users/alex/Documents/code/buddhist-dictionary/web-resources/images/icon512.png"
   inkscape:export-xdpi="192.00002"
   inkscape:export-ydpi="192.00002"
   inkscape:version="1.0beta1 (32d4812, 2019-09-19)"
   sodipodi:docname="icon.svg">
  <defs
     id="defs861">
    <rect
       x="61.988094"
       y="102.80952"
       width="25.134899"
       height="27.241947"
       id="rect1432" />
  </defs>
  <sodipodi:namedview
     units="px"
     id="base"
     pagecolor="#ffffff"
     bordercolor="#666666"
     borderopacity="1.0"
     inkscape:pageopacity="0.0"
     inkscape:pageshadow="2"
     inkscape:zoom="0.35"
     inkscape:cx="400"
     inkscape:cy="560"
     inkscape:document-units="mm"
     inkscape:current-layer="layer3"
     inkscape:document-rotation="0"
     showgrid="false"
     inkscape:window-width="1440"
     inkscape:window-height="763"
     inkscape:window-x="0"
     inkscape:window-y="25"
     inkscape:window-maximized="0" />
  <metadata
     id="metadata864">
    <rdf:RDF>
      <cc:Work
         rdf:about="">
        <dc:format>image/svg+xml</dc:format>
        <dc:type
           rdf:resource="http://purl.org/dc/dcmitype/StillImage" />
        <dc:title></dc:title>
      </cc:Work>
    </rdf:RDF>
  </metadata>
  <g
     inkscape:label="base"
     id="layer4"
     inkscape:groupmode="layer" />
  <g
     inkscape:label="text"
     id="layer3"
     inkscape:groupmode="layer">
    <circle
       r="33.866665"
       style="opacity:1;fill:#ffffff;stroke-width:0.744311;stop-opacity:1"
       id="path876-7"
       cx="33.866665"
       cy="33.866665" />
    <path
       inkscape:connector-curvature="0"
       id="path1655"
       d="m 49.675184,47.473528 c -0.08056,-0.06019 -0.409095,-0.528168 -0.730124,-1.040041 -0.629514,-1.00375 -1.423547,-1.873417 -3.138184,-3.437131 -1.11478,-1.016651 -2.109914,-2.383537 -2.29513,-3.152527 -0.05688,-0.236344 -0.07025,-0.429724 -0.02954,-0.429724 0.04063,0 0.793781,0.358256 1.673555,0.79613 2.600802,1.294447 4.815698,1.625442 5.575895,0.833273 1.044807,-1.088748 3.197024,-14.358913 2.590473,-15.972344 -0.348156,-0.926117 -2.127806,-1.406859 -5.20403,-1.405794 -2.669838,9.12e-4 -3.273429,0.105386 -3.45301,0.597581 -0.0768,0.210477 -0.383475,0.779922 -0.681523,1.265444 -0.298048,0.485513 -0.541913,0.908253 -0.541913,0.939412 0,0.03114 0.264111,0.100668 0.586904,0.154453 0.741885,0.123621 1.201371,0.629703 1.397406,1.539103 0.287088,1.331797 -0.266025,2.038876 -2.251068,2.877694 -0.870894,0.368008 -1.090328,0.539841 -1.327831,1.039795 -0.442826,0.932172 -0.301256,1.07153 1.08885,1.071812 1.570202,3.28e-4 2.119741,0.284706 2.779094,1.438118 0.558128,0.976324 0.644161,1.685901 0.231187,1.906666 -0.148343,0.0793 -0.789891,0.188271 -1.425653,0.242166 -0.635775,0.05391 -1.51206,0.208692 -1.94731,0.343998 -0.873306,0.2715 -0.974857,0.446678 -0.979698,1.69006 -0.0035,1.002119 -0.557816,4.73053 -0.845614,5.691867 -0.289984,0.96863 -0.631067,1.535459 -0.923934,1.535459 -0.326821,0 -0.978535,-0.973301 -1.310268,-1.956834 -0.16068,-0.476398 -0.407979,-1.694533 -0.549541,-2.706969 -0.141571,-1.012436 -0.274281,-1.859911 -0.29492,-1.883285 -0.02062,-0.0234 -0.34283,0.132101 -0.71599,0.3455 -1.884904,1.077922 -3.005649,0.397758 -3.185193,-1.933054 -0.07261,-0.942671 -0.05059,-1.029891 0.371761,-1.469959 0.342217,-0.356617 0.650611,-0.49409 1.29724,-0.578275 1.076006,-0.140095 1.993665,-0.919752 1.993665,-1.693868 0,-0.604538 -0.04343,-0.606286 -2.029177,-0.08177 -1.840105,0.486059 -1.978521,0.430799 -1.977246,-0.789291 8.74e-4,-1.107506 0.254193,-1.987249 0.707426,-2.459541 l 0.37467,-0.390421 -0.337535,-1.341082 -0.337543,-1.341094 -0.781907,0.451203 c -0.430051,0.248166 -1.167737,0.564893 -1.639292,0.703832 -1.09856,0.323683 -1.787277,0.812729 -2.373544,1.685392 -0.465081,0.692274 -0.467982,0.709983 -0.44834,2.737487 0.01084,1.122383 0.114903,3.192779 0.231186,4.600877 0.338505,4.098996 0.197773,5.049597 -0.747558,5.049597 -0.555143,0 -1.740433,-1.323372 -2.351743,-2.625713 -0.686735,-1.463021 -0.806321,-2.389757 -0.697447,-5.404649 0.07777,-2.154638 0.05033,-2.815147 -0.147146,-3.533362 -0.802991,-2.920723 -0.836187,-4.048114 -0.140539,-4.773013 0.38062,-0.396617 0.403174,-0.399559 2.201809,-0.286946 1.234162,0.0773 2.108926,0.05099 2.726283,-0.08195 1.414519,-0.304535 3.359689,-1.409782 3.207667,-1.822597 -0.04203,-0.114096 -0.0061,-0.400596 0.08021,-0.636658 0.132502,-0.363158 0.248391,-0.429217 0.753029,-0.429217 0.687067,0 0.945812,-0.237501 1.402978,-1.287743 0.383897,-0.881939 0.421059,-1.849667 0.07628,-1.987522 -0.134082,-0.05363 -0.546816,-0.09749 -0.91717,-0.09749 -1.66956,0 -3.064743,-0.562759 -4.24341,-1.711629 -0.862628,-0.84081 -1.913591,-2.36999 -1.781685,-2.592397 0.05042,-0.08505 0.699588,-0.204476 1.442577,-0.265454 1.988781,-0.163215 3.846232,-0.661456 5.302343,-1.422284 l 1.28884,-0.673437 0.10315,-0.803031 c 0.05672,-0.441671 0.154282,-2.18974 0.216767,-3.8845915 0.131173,-3.5582844 0.07488,-3.7851867 -0.98301,-3.961457 -0.727776,-0.1212714 -0.99463,-0.4125056 -0.927829,-1.0125995 0.07541,-0.6773862 0.948853,-1.232782 1.745055,-1.1096231 1.032448,0.1596956 2.256833,0.7054488 3.386533,1.509484 1.478113,1.052023 1.930822,1.9383887 1.930822,3.7804248 0,0.7192526 -0.06178,1.5320654 -0.137211,1.8062611 l -0.137202,0.4985332 1.485803,0.08805 c 2.661291,0.157756 4.799504,1.298541 4.799504,2.560625 0,0.804746 -0.35229,1.041674 -2.09005,1.405639 -1.122973,0.2352 -1.949251,0.538341 -3.095413,1.135641 -0.859937,0.448135 -1.667961,0.937316 -1.795605,1.087081 -0.12765,0.149765 -0.383294,0.80549 -0.5681,1.457184 -0.184806,0.651691 -0.377886,1.302147 -0.429081,1.445465 -0.0512,0.143319 0.200761,-0.01366 0.559886,-0.348868 0.819577,-0.764974 1.262525,-0.943427 2.348606,-0.946222 0.99076,-0.0027 1.621101,0.283073 2.196031,0.99507 0.421171,0.521587 0.784567,1.635193 0.675425,2.069843 -0.05793,0.230802 0.311502,0.257436 3.57137,0.257436 4.040362,0 4.806869,0.128045 6.552423,1.0946 1.753424,0.970906 3.189239,2.738747 2.922577,3.598386 -0.04876,0.157213 -0.291072,0.719472 -0.538465,1.249482 -0.5226,1.119633 -0.970413,3.37382 -1.210853,6.095159 -0.534151,6.045731 -2.493664,10.859555 -5.395308,13.254356 -0.701333,0.578825 -1.579221,0.989765 -1.785432,0.835756 z M 29.252599,27.436983 c -0.209255,-0.262741 -1.447706,-0.573788 -1.770553,-0.444693 -0.213029,0.08523 -0.244966,0.245059 -0.173883,0.870474 0.04789,0.421366 0.176426,0.915219 0.285631,1.097445 0.191735,0.319922 0.22632,0.302758 1.005675,-0.499281 0.578316,-0.595149 0.763462,-0.885407 0.65313,-1.023945 z m 9.156185,0.660517 1.170646,-0.555915 0.698111,-1.44847 c 0.383959,-0.796651 0.698103,-1.517871 0.698103,-1.602714 0,-0.176945 -1.707317,0.400987 -3.077563,1.041782 l -0.929716,0.434777 0.0018,0.740955 c 0.0018,0.701033 0.148998,1.945498 0.230417,1.945498 0.02071,0 0.564449,-0.250157 1.208306,-0.555913 z m 2.252166,-5.758825 c 1.407266,-0.383153 1.496804,-0.480504 1.53234,-1.665988 0.02613,-0.870929 -0.616167,-0.965207 -2.0558,-0.301757 -0.725513,0.334355 -0.856991,0.466036 -0.999575,1.001136 -0.219138,0.822335 -0.208704,1.340809 0.02673,1.330219 0.105964,-0.0045 0.779295,-0.168385 1.496289,-0.36361 z"
       style="opacity:1;fill:#b3b3b3;stroke-width:0.157334;stop-opacity:1" />
    <path
       inkscape:connector-curvature="0"
       id="path1725"
       d="m 47.451476,54.464778 c -3.963683,-0.783809 -7.718255,-3.782221 -12.671655,-10.119633 -2.208606,-2.825703 -3.893784,-4.363904 -5.665054,-5.17094 -1.988875,-0.906178 -4.325394,-1.554769 -4.519348,-1.254497 -0.235829,0.365114 -0.580884,2.729583 -0.793175,5.435258 -0.339632,4.3285 -1.231487,5.683111 -4.936172,7.497249 -2.924556,1.432126 -4.089128,1.721912 -6.919777,1.721912 -2.2406972,0 -2.5636174,-0.04405 -3.4598888,-0.472935 -0.6802707,-0.325448 -0.9885407,-0.588185 -0.9885407,-0.84251 0,-0.310995 0.2507696,-0.416932 1.5816655,-0.668172 3.792391,-0.71588 7.472876,-3.323161 9.225025,-6.535056 0.948862,-1.739378 2.260311,-5.763828 1.878256,-5.763828 -0.0612,0 -0.623567,0.127691 -1.24978,0.283761 -2.248856,0.560466 -5.676353,0.230683 -7.004043,-0.6739 -0.943853,-0.643064 -1.293046,-2.811043 -0.647085,-4.017513 0.367407,-0.686211 0.612595,-0.882118 1.109237,-0.886285 0.238048,-0.0025 0.345986,0.144647 0.345986,0.470049 0,0.260109 0.08586,0.472927 0.190804,0.472927 0.521839,0 2.413656,-0.751559 5.569984,-2.212797 l 3.487137,-1.614377 0.214095,-1.065872 c 0.265273,-1.320588 0.380723,-2.510999 0.235772,-2.430955 -2.944707,1.626091 -3.419593,0.769832 -1.10084,-1.984921 1.218778,-1.447956 1.480049,-1.8771 1.482795,-2.435521 0.0045,-0.848799 0.113409,-0.952617 0.756255,-0.718749 0.434233,0.157962 0.569262,0.119161 0.864956,-0.24855 0.192719,-0.239653 0.347915,-0.478304 0.344878,-0.530319 -0.0034,-0.05202 -0.516359,-0.325787 -1.140699,-0.608357 -2.662623,-1.205076 -5.679996,-4.83812 -4.678666,-5.633284 0.160282,-0.127274 0.880693,-0.264742 1.600922,-0.305469 1.945845,-0.110047 3.500767,-0.547092 5.814421,-1.634263 1.440808,-0.677039 2.359307,-1.253135 3.002197,-1.88304 0.878384,-0.8606633 0.980999,-0.9075777 1.984951,-0.9075777 2.451532,0 5.37844,1.2208097 6.315109,2.6340307 0.583721,0.880692 0.719894,1.834573 0.35501,2.486925 -0.112838,0.201735 -0.713371,0.613854 -1.334518,0.915827 -1.318196,0.64085 -4.145428,2.607934 -8.084417,5.624856 l -2.803188,2.147016 0.68564,1.088209 c 0.377102,0.598504 0.79461,1.444858 0.927802,1.880791 l 0.242172,0.7926 2.863917,-1.271407 c 1.575155,-0.699275 3.842573,-1.768793 5.038698,-2.376708 2.681653,-1.362912 3.042212,-1.466891 4.297181,-1.239167 1.332077,0.241714 2.57799,0.85855 3.633059,1.798656 1.562028,1.391852 1.145338,2.073386 -1.887209,3.086641 -2.391857,0.799168 -5.493586,2.07746 -8.397092,3.460603 -2.975903,1.417625 -5.653074,2.835903 -5.653074,2.994817 0,0.0662 0.333634,0.272233 0.741404,0.457955 1.960863,0.893083 6.541735,4.237139 8.893767,6.492513 1.627598,1.560718 4.06127,3.342785 5.851961,4.285133 0.670505,0.35284 2.509127,1.081595 4.085833,1.619436 4.150985,1.415995 7.844975,3.182845 9.030295,4.319238 1.230445,1.179644 1.817171,2.195976 1.527266,2.64553 -0.116403,0.180528 -0.693407,0.490511 -1.282203,0.688844 -1.434188,0.483094 -6.922484,0.609146 -8.962026,0.205826 z"
       style="opacity:1;fill:#000000;stroke-width:0.193392;stop-opacity:1" />
  </g>
</svg>
