<?xml version="1.0" encoding="UTF-8" standalone="no"?>
<svg
   xmlns:dc="http://purl.org/dc/elements/1.1/"
   xmlns:cc="http://creativecommons.org/ns#"
   xmlns:rdf="http://www.w3.org/1999/02/22-rdf-syntax-ns#"
   xmlns:svg="http://www.w3.org/2000/svg"
   xmlns="http://www.w3.org/2000/svg"
   xmlns:sodipodi="http://sodipodi.sourceforge.net/DTD/sodipodi-0.dtd"
   xmlns:inkscape="http://www.inkscape.org/namespaces/inkscape"
   width="210mm"
   height="297mm"
   viewBox="0 0 210 297"
   version="1.1"
   id="svg867"
   inkscape:export-filename="/Users/alex/Documents/code/buddhist-dictionary/web-resources/images/icon512.png"
   inkscape:export-xdpi="135.46666"
   inkscape:export-ydpi="135.46666"
   inkscape:version="1.0beta1 (32d4812, 2019-09-19)"
   sodipodi:docname="icon.svg">
  <defs
     id="defs861">
    <rect
       x="61.988095"
       y="102.80952"
       width="25.134899"
       height="27.241947"
       id="rect1432" />
  </defs>
  <sodipodi:namedview
     id="base"
     pagecolor="#ffffff"
     bordercolor="#666666"
     borderopacity="1.0"
     inkscape:pageopacity="0.0"
     inkscape:pageshadow="2"
     inkscape:zoom="0.70710678"
     inkscape:cx="325.60246"
     inkscape:cy="630.41389"
     inkscape:document-units="mm"
     inkscape:current-layer="layer3"
     inkscape:document-rotation="0"
     showgrid="false"
     inkscape:window-width="1440"
     inkscape:window-height="763"
     inkscape:window-x="0"
     inkscape:window-y="25"
     inkscape:window-maximized="0" />
  <metadata
     id="metadata864">
    <rdf:RDF>
      <cc:Work
         rdf:about="">
        <dc:format>image/svg+xml</dc:format>
        <dc:type
           rdf:resource="http://purl.org/dc/dcmitype/StillImage" />
        <dc:title />
      </cc:Work>
    </rdf:RDF>
  </metadata>
  <g
     inkscape:label="base"
     id="layer4"
     inkscape:groupmode="layer" />
  <g
     inkscape:label="text"
     id="layer3"
     inkscape:groupmode="layer">
    <g
       id="g1753">
      <circle
         cy="148"
         cx="88"
         id="path876-7"
         style="fill:#ffffff;stroke-width:1.05493"
         r="48" />
      <g
         id="g1746"
         transform="translate(-50.800026,-27.516678)">
        <path
           inkscape:connector-curvature="0"
           id="path1655"
           d="m 156.53656,191.06108 c -0.0922,-0.0661 -0.46819,-0.58007 -0.83559,-1.14224 -0.72045,-1.10238 -1.62918,-2.0575 -3.5915,-3.77487 -1.27581,-1.11655 -2.41469,-2.61775 -2.62666,-3.4623 -0.0651,-0.25957 -0.0804,-0.47195 -0.0338,-0.47195 0.0465,0 0.90844,0.39346 1.9153,0.87436 2.97649,1.42164 5.51133,1.78516 6.38134,0.91515 1.19573,-1.19573 3.65884,-15.76985 2.96467,-17.54182 -0.39845,-1.01712 -2.43517,-1.5451 -5.95576,-1.54393 -3.0555,0.001 -3.74628,0.11574 -3.9518,0.6563 -0.0879,0.23116 -0.43887,0.85656 -0.77997,1.38979 -0.3411,0.53322 -0.62019,0.9975 -0.62019,1.03172 0,0.0342 0.30226,0.11056 0.67168,0.16963 0.84905,0.13577 1.37491,0.69158 1.59926,1.69034 0.32856,1.46266 -0.30445,2.23922 -2.57623,3.16046 -0.99669,0.40417 -1.24782,0.59289 -1.51963,1.14197 -0.50679,1.02377 -0.34477,1.17682 1.24613,1.17713 1.79701,3.6e-4 2.42593,0.31268 3.18053,1.57943 0.63875,1.07226 0.73721,1.85156 0.26458,2.09402 -0.16977,0.0871 -0.90399,0.20677 -1.63159,0.26596 -0.72761,0.0592 -1.73047,0.2292 -2.22859,0.3778 -0.99945,0.29818 -1.11567,0.49057 -1.12121,1.85613 -0.004,1.10059 -0.63839,5.19536 -0.96776,6.25116 -0.33187,1.06381 -0.72222,1.68634 -1.05739,1.68634 -0.37403,0 -1.11988,-1.06894 -1.49953,-2.14912 -0.18389,-0.52321 -0.46691,-1.86104 -0.62892,-2.97296 -0.16202,-1.11192 -0.3139,-2.04267 -0.33752,-2.06834 -0.0236,-0.0257 -0.39235,0.14508 -0.81941,0.37945 -2.15717,1.18384 -3.4398,0.43684 -3.64528,-2.123 -0.0831,-1.0353 -0.0579,-1.13109 0.42546,-1.6144 0.39165,-0.39166 0.74459,-0.54264 1.48462,-0.6351 1.23143,-0.15386 2.28164,-1.01013 2.28164,-1.86031 0,-0.66394 -0.0497,-0.66586 -2.32228,-0.0898 -2.1059,0.53382 -2.26431,0.47313 -2.26285,-0.86685 0.001,-1.21633 0.29091,-2.18252 0.80961,-2.70122 l 0.42879,-0.42879 -0.38629,-1.47286 -0.3863,-1.47287 -0.89485,0.49554 c -0.49217,0.27255 -1.33641,0.6204 -1.87608,0.77299 -1.25724,0.35549 -2.04544,0.89259 -2.71639,1.851 -0.53226,0.7603 -0.53558,0.77975 -0.5131,3.00648 0.0124,1.23267 0.1315,3.50651 0.26458,5.05297 0.3874,4.50177 0.22634,5.54578 -0.85554,5.54578 -0.63533,0 -1.99183,-1.45341 -2.69144,-2.88372 -0.78593,-1.60678 -0.92279,-2.62458 -0.79819,-5.93572 0.089,-2.36636 0.0576,-3.09177 -0.1684,-3.88056 -0.91898,-3.20772 -0.95697,-4.44589 -0.16084,-5.24202 0.4356,-0.43559 0.46141,-0.43882 2.51985,-0.31514 1.41243,0.0849 2.41355,0.056 3.12008,-0.09 1.61884,-0.33446 3.84498,-1.54831 3.671,-2.00169 -0.0481,-0.12531 -0.007,-0.43996 0.0918,-0.69922 0.15164,-0.39884 0.28427,-0.47139 0.8618,-0.47139 0.78631,0 1.08243,-0.26084 1.60563,-1.41428 0.43935,-0.9686 0.48188,-2.03142 0.0873,-2.18282 -0.15345,-0.0589 -0.6258,-0.10707 -1.04965,-0.10707 -1.91072,0 -3.50743,-0.61806 -4.85635,-1.87982 -0.98723,-0.92343 -2.19,-2.60287 -2.03904,-2.84713 0.0577,-0.0934 0.80064,-0.22457 1.65095,-0.29154 2.27605,-0.17925 4.4018,-0.72645 6.06824,-1.56204 l 1.475,-0.73961 0.11805,-0.88194 c 0.0649,-0.48507 0.17656,-2.40491 0.24807,-4.2663 0.15012,-3.90793 0.0857,-4.15713 -1.125,-4.35072 -0.8329,-0.13319 -1.1383,-0.45304 -1.06185,-1.1121 0.0863,-0.74395 1.08591,-1.35392 1.99712,-1.21866 1.18158,0.17539 2.58282,0.77477 3.8757,1.65781 1.69162,1.1554 2.20972,2.12886 2.20972,4.1519 0,0.78993 -0.0707,1.68261 -0.15703,1.98375 l -0.15702,0.54752 1.70042,0.0967 c 3.04571,0.17326 5.49279,1.42614 5.49279,2.81224 0,0.88382 -0.40318,1.14403 -2.39196,1.54376 -1.28519,0.25831 -2.23082,0.59124 -3.54254,1.24723 -0.98415,0.49217 -1.90889,1.02942 -2.05497,1.1939 -0.14609,0.16448 -0.43866,0.88464 -0.65016,1.60037 -0.2115,0.71573 -0.43247,1.4301 -0.49106,1.5875 -0.0586,0.1574 0.22976,-0.015 0.64076,-0.38315 0.93796,-0.84014 1.44489,-1.03613 2.68785,-1.0392 1.13387,-0.003 1.85526,0.31089 2.51324,1.09285 0.48201,0.57284 0.8979,1.79587 0.77299,2.27323 -0.0663,0.25348 0.3565,0.28273 4.08726,0.28273 4.624,0 5.50123,0.14063 7.49893,1.20216 2.00671,1.06631 3.64993,3.00786 3.34475,3.95197 -0.0558,0.17266 -0.33312,0.79017 -0.61625,1.37226 -0.59809,1.22965 -1.11059,3.70534 -1.38576,6.69408 -0.61131,6.6398 -2.85388,11.92664 -6.17467,14.55676 -0.80264,0.6357 -1.80734,1.08702 -2.04334,0.91788 z M 133.164,169.0557 c -0.23948,-0.28856 -1.65682,-0.63017 -2.0263,-0.48839 -0.2438,0.0936 -0.28035,0.26914 -0.199,0.95601 0.0548,0.46277 0.20191,1.00515 0.32689,1.20528 0.21943,0.35136 0.25901,0.33251 1.15094,-0.54834 0.66185,-0.65363 0.87374,-0.97241 0.74747,-1.12456 z m 10.47875,0.72542 1.33974,-0.61054 0.79895,-1.5908 c 0.43942,-0.87493 0.79894,-1.66702 0.79894,-1.7602 0,-0.19433 -1.95393,0.44039 -3.5221,1.14415 l -1.06401,0.4775 0.002,0.81376 c 0.002,0.76992 0.17052,2.13667 0.2637,2.13667 0.0237,0 0.64598,-0.27474 1.38284,-0.61054 z m 2.57748,-6.3247 c 1.61054,-0.4208 1.71301,-0.52772 1.75368,-1.82969 0.0299,-0.95651 -0.70517,-1.06005 -2.35275,-0.33141 -0.83031,0.36721 -0.98078,0.51183 -1.14396,1.09951 -0.25079,0.90314 -0.23885,1.47256 0.0306,1.46093 0.12127,-0.005 0.89186,-0.18493 1.71242,-0.39934 z"
           style="opacity:1;fill:#666666;stroke-width:0.176389" />
        <path
           inkscape:connector-curvature="0"
           id="path1725"
           d="m 146.86016,207.16708 c -3.53632,-0.73084 -6.88605,-3.52664 -11.30534,-9.4358 -1.97046,-2.63475 -3.47393,-4.06901 -5.05421,-4.82151 -1.77442,-0.84494 -3.859,-1.4497 -4.03204,-1.16972 -0.2104,0.34044 -0.51825,2.54513 -0.70765,5.06797 -0.30301,4.036 -1.0987,5.29907 -4.40392,6.99062 -2.60921,1.33535 -3.64821,1.60555 -6.17364,1.60555 -1.99909,0 -2.28719,-0.0411 -3.08682,-0.44097 -0.60692,-0.30346 -0.88195,-0.54844 -0.88195,-0.78558 0,-0.28998 0.22373,-0.38876 1.41112,-0.62302 3.38347,-0.66751 6.6671,-3.0986 8.23032,-6.09345 0.84655,-1.62184 2.01659,-5.37434 1.67573,-5.37434 -0.0546,0 -0.55633,0.11907 -1.11502,0.26459 -2.00637,0.52259 -5.06429,0.2151 -6.24882,-0.62836 -0.84208,-0.59961 -1.15362,-2.62109 -0.57731,-3.74603 0.32779,-0.63984 0.54654,-0.82251 0.98963,-0.82639 0.21238,-0.002 0.30868,0.13487 0.30868,0.43828 0,0.24253 0.0766,0.44097 0.17023,0.44097 0.46557,0 2.1534,-0.70077 4.96939,-2.06326 l 3.11113,-1.50529 0.19101,-0.99385 c 0.23667,-1.23135 0.33967,-2.34131 0.21035,-2.26668 -2.62719,1.51621 -3.05087,0.71781 -0.98214,-1.85079 1.08736,-1.35011 1.32046,-1.75025 1.32291,-2.27094 0.004,-0.79144 0.10118,-0.88824 0.67471,-0.67018 0.38741,0.14729 0.50788,0.11111 0.77169,-0.23175 0.17194,-0.22346 0.3104,-0.44598 0.30769,-0.49448 -0.003,-0.0485 -0.46068,-0.30377 -1.0177,-0.56725 -2.37552,-1.12364 -5.06754,-4.51118 -4.17418,-5.25261 0.143,-0.11868 0.78573,-0.24685 1.4283,-0.28483 1.73603,-0.10261 3.12329,-0.51012 5.18747,-1.52383 1.28545,-0.63128 2.10491,-1.16845 2.67848,-1.75579 0.78367,-0.8025 0.87522,-0.84625 1.77092,-0.84625 2.18719,0 4.7985,1.13832 5.63417,2.45604 0.52078,0.82118 0.64227,1.7106 0.31673,2.31887 -0.10067,0.1881 -0.63645,0.57237 -1.19062,0.85394 -1.17606,0.59754 -3.69844,2.4317 -7.2127,5.24476 l -2.50093,2.00192 0.61171,1.01467 c 0.33644,0.55806 0.70893,1.34723 0.82776,1.7537 l 0.21606,0.73904 2.55511,-1.18549 c 1.40531,-0.65202 3.42824,-1.64927 4.49539,-2.2161 2.3925,-1.27082 2.71418,-1.36777 3.83383,-1.15543 1.18844,0.22538 2.30002,0.80053 3.24132,1.67711 1.39362,1.2978 1.02185,1.93328 -1.68372,2.87806 -2.13395,0.74517 -4.90123,1.93707 -7.49166,3.22675 -2.65502,1.32183 -5.04352,2.64427 -5.04352,2.79244 0,0.0617 0.29766,0.25384 0.66146,0.42701 1.74943,0.83273 5.83636,3.95081 7.93478,6.05378 1.4521,1.45525 3.62336,3.11689 5.22097,3.99556 0.59821,0.329 2.23859,1.00851 3.64529,1.51001 3.70342,1.32031 6.99912,2.96776 8.05664,4.02736 1.09777,1.09993 1.62123,2.04758 1.36259,2.46676 -0.10385,0.16833 -0.61864,0.45736 -1.14396,0.64229 -1.27955,0.45045 -6.17609,0.56799 -7.99572,0.19192 z"
           style="fill:#000000;stroke-width:0.176389" />
      </g>
    </g>
  </g>
</svg>
