<?xml version="1.0" encoding="UTF-8" standalone="no"?>
<svg
   xmlns:dc="http://purl.org/dc/elements/1.1/"
   xmlns:cc="http://creativecommons.org/ns#"
   xmlns:rdf="http://www.w3.org/1999/02/22-rdf-syntax-ns#"
   xmlns:svg="http://www.w3.org/2000/svg"
   xmlns="http://www.w3.org/2000/svg"
   xmlns:sodipodi="http://sodipodi.sourceforge.net/DTD/sodipodi-0.dtd"
   xmlns:inkscape="http://www.inkscape.org/namespaces/inkscape"
   sodipodi:docname="icon.svg"
   inkscape:version="1.0beta1 (32d4812, 2019-09-19)"
   inkscape:export-ydpi="4.2333331"
   inkscape:export-xdpi="4.2333331"
   inkscape:export-filename="/Users/alex/Documents/code/buddhist-dictionary/web-resources/images/icon16.png"
   id="svg867"
   version="1.1"
   viewBox="0 0 210 297"
   height="297mm"
   width="210mm">
  <defs
     id="defs861">
    <rect
       id="rect1432"
       height="27.241947"
       width="25.134899"
       y="102.80952"
       x="61.988095" />
  </defs>
  <sodipodi:namedview
     inkscape:window-maximized="0"
     inkscape:window-y="25"
     inkscape:window-x="0"
     inkscape:window-height="763"
     inkscape:window-width="1440"
     showgrid="false"
     inkscape:document-rotation="0"
     inkscape:current-layer="layer3"
     inkscape:document-units="mm"
     inkscape:cy="560"
     inkscape:cx="400"
     inkscape:zoom="1"
     inkscape:pageshadow="2"
     inkscape:pageopacity="0.0"
     borderopacity="1.0"
     bordercolor="#666666"
     pagecolor="#ffffff"
     id="base" />
  <metadata
     id="metadata864">
    <rdf:RDF>
      <cc:Work
         rdf:about="">
        <dc:format>image/svg+xml</dc:format>
        <dc:type
           rdf:resource="http://purl.org/dc/dcmitype/StillImage" />
        <dc:title />
      </cc:Work>
    </rdf:RDF>
  </metadata>
  <g
     inkscape:groupmode="layer"
     id="layer4"
     inkscape:label="base" />
  <g
     inkscape:groupmode="layer"
     id="layer3"
     inkscape:label="text">
    <circle
       cy="148"
       cx="88"
       id="path876-7"
       style="opacity:1;fill:#ffffff;stroke-width:1.05493;stop-opacity:1"
       r="48" />
    <path
       style="opacity:1;fill:#808080;stroke-width:0.176389;stop-opacity:1"
       d="m 105.73653,163.5444 c -0.0922,-0.0661 -0.46819,-0.58007 -0.83559,-1.14224 -0.72045,-1.10238 -1.62918,-2.0575 -3.5915,-3.77487 -1.27581,-1.11655 -2.414686,-2.61775 -2.626656,-3.4623 -0.0651,-0.25957 -0.0804,-0.47195 -0.0338,-0.47195 0.0465,0 0.90844,0.39346 1.915296,0.87436 2.97649,1.42164 5.51133,1.78516 6.38134,0.91515 1.19573,-1.19573 3.65884,-15.76985 2.96467,-17.54182 -0.39845,-1.01712 -2.43517,-1.5451 -5.95576,-1.54393 -3.0555,10e-4 -3.74628,0.11574 -3.9518,0.6563 -0.0879,0.23116 -0.438866,0.85656 -0.779966,1.38979 -0.3411,0.53322 -0.62019,0.9975 -0.62019,1.03172 0,0.0342 0.30226,0.11056 0.67168,0.16963 0.849046,0.13577 1.374906,0.69158 1.599256,1.69034 0.32856,1.46266 -0.30445,2.23922 -2.576226,3.16046 -0.99669,0.40417 -1.24782,0.59289 -1.51963,1.14197 -0.50679,1.02377 -0.34477,1.17682 1.24613,1.17713 1.79701,3.6e-4 2.425926,0.31268 3.180526,1.57943 0.63875,1.07226 0.73721,1.85156 0.26458,2.09402 -0.16977,0.0871 -0.90399,0.20677 -1.631586,0.26596 -0.72761,0.0592 -1.73047,0.2292 -2.22859,0.3778 -0.99945,0.29818 -1.11567,0.49057 -1.12121,1.85613 -0.004,1.10059 -0.63839,5.19536 -0.96776,6.25116 -0.33187,1.06381 -0.72222,1.68634 -1.05739,1.68634 -0.37403,0 -1.11988,-1.06894 -1.49953,-2.14912 -0.18389,-0.52321 -0.46691,-1.86104 -0.62892,-2.97296 -0.16202,-1.11192 -0.3139,-2.04267 -0.33752,-2.06834 -0.0236,-0.0257 -0.39235,0.14508 -0.81941,0.37945 -2.15717,1.18384 -3.4398,0.43684 -3.64528,-2.123 -0.0831,-1.0353 -0.0579,-1.13109 0.42546,-1.6144 0.39165,-0.39166 0.74459,-0.54264 1.48462,-0.6351 1.23143,-0.15386 2.28164,-1.01013 2.28164,-1.86031 0,-0.66394 -0.0497,-0.66586 -2.32228,-0.0898 -2.1059,0.53382 -2.26431,0.47313 -2.26285,-0.86685 0.001,-1.21633 0.29091,-2.18252 0.80961,-2.70122 l 0.42879,-0.42879 -0.38629,-1.47286 -0.3863,-1.47287 -0.89485,0.49554 c -0.49217,0.27255 -1.33641,0.6204 -1.87608,0.77299 -1.25724,0.35549 -2.04544,0.89259 -2.71639,1.851 -0.53226,0.7603 -0.53558,0.77975 -0.5131,3.00648 0.0124,1.23267 0.1315,3.50651 0.26458,5.05297 0.3874,4.50177 0.22634,5.54578 -0.85554,5.54578 -0.63533,0 -1.99183,-1.45341 -2.69144,-2.88372 -0.78593,-1.60678 -0.92279,-2.62458 -0.79819,-5.93572 0.089,-2.36636 0.0576,-3.09177 -0.1684,-3.88056 -0.91898,-3.20772 -0.95697,-4.44589 -0.16084,-5.24202 0.4356,-0.43559 0.46141,-0.43882 2.51985,-0.31514 1.41243,0.0849 2.41355,0.056 3.12008,-0.09 1.61884,-0.33446 3.84498,-1.54831 3.671,-2.00169 -0.0481,-0.12531 -0.007,-0.43996 0.0918,-0.69922 0.15164,-0.39884 0.28427,-0.47139 0.8618,-0.47139 0.78631,0 1.08243,-0.26084 1.60563,-1.41428 0.43935,-0.9686 0.48188,-2.03142 0.0873,-2.18282 -0.15345,-0.0589 -0.6258,-0.10707 -1.04965,-0.10707 -1.91072,0 -3.50743,-0.61806 -4.85635,-1.87982 -0.98723,-0.92343 -2.19,-2.60287 -2.03904,-2.84713 0.0577,-0.0934 0.80064,-0.22457 1.65095,-0.29154 2.27605,-0.17925 4.4018,-0.72645 6.06824,-1.56204 l 1.475,-0.73961 0.11805,-0.88194 c 0.0649,-0.48507 0.17656,-2.40491 0.24807,-4.2663 0.15012,-3.90793 0.0857,-4.15713 -1.125,-4.35072 -0.8329,-0.13319 -1.1383,-0.45304 -1.06185,-1.1121 0.0863,-0.74395 1.08591,-1.35392 1.99712,-1.21866 1.18158,0.17539 2.58282,0.77477 3.8757,1.65781 1.69162,1.1554 2.20972,2.12886 2.20972,4.1519 0,0.78993 -0.0707,1.68261 -0.15703,1.98375 l -0.15702,0.54752 1.70042,0.0967 c 3.045706,0.17326 5.492786,1.42614 5.492786,2.81224 0,0.88382 -0.40318,1.14403 -2.39196,1.54376 -1.285186,0.25831 -2.230816,0.59124 -3.542536,1.24723 -0.98415,0.49217 -1.90889,1.02942 -2.05497,1.1939 -0.14609,0.16448 -0.43866,0.88464 -0.65016,1.60037 -0.2115,0.71573 -0.43247,1.4301 -0.49106,1.5875 -0.0586,0.1574 0.22976,-0.015 0.64076,-0.38315 0.93796,-0.84014 1.44489,-1.03613 2.68785,-1.0392 1.13387,-0.003 1.85526,0.31089 2.513236,1.09285 0.48201,0.57284 0.8979,1.79587 0.77299,2.27323 -0.0663,0.25348 0.3565,0.28273 4.08726,0.28273 4.624,0 5.50123,0.14063 7.49893,1.20216 2.00671,1.06631 3.64993,3.00786 3.34475,3.95197 -0.0558,0.17266 -0.33312,0.79017 -0.61625,1.37226 -0.59809,1.22965 -1.11059,3.70534 -1.38576,6.69408 -0.61131,6.6398 -2.85388,11.92664 -6.17467,14.55676 -0.80264,0.6357 -1.80734,1.08702 -2.04334,0.91788 z M 82.363974,141.53902 c -0.23948,-0.28856 -1.65682,-0.63017 -2.0263,-0.48839 -0.2438,0.0936 -0.28035,0.26914 -0.199,0.95601 0.0548,0.46277 0.20191,1.00515 0.32689,1.20528 0.21943,0.35136 0.25901,0.33251 1.15094,-0.54834 0.66185,-0.65363 0.87374,-0.97241 0.74747,-1.12456 z m 10.47875,0.72542 1.33974,-0.61054 0.79895,-1.5908 c 0.43942,-0.87493 0.79894,-1.66702 0.79894,-1.7602 0,-0.19433 -1.95393,0.44039 -3.5221,1.14415 l -1.06401,0.4775 0.002,0.81376 c 0.002,0.76992 0.17052,2.13667 0.2637,2.13667 0.0237,0 0.64598,-0.27474 1.38284,-0.61054 z m 2.57748,-6.3247 c 1.61054,-0.4208 1.71301,-0.52772 1.75368,-1.82969 0.0299,-0.95651 -0.70517,-1.06005 -2.35275,-0.33141 -0.83031,0.36721 -0.98078,0.51183 -1.14396,1.09951 -0.25079,0.90314 -0.23885,1.47256 0.0306,1.46093 0.12127,-0.005 0.89186,-0.18493 1.71242,-0.39934 z"
       id="path1655"
       inkscape:connector-curvature="0" />
    <path
       style="opacity:1;fill:#000000;stroke-width:0.22549;stop-opacity:1"
       d="m 106.51102,177.27201 c -4.57312,-0.92358 -8.904961,-4.45668 -14.619939,-11.9242 -2.548176,-3.32959 -4.492448,-5.14209 -6.536048,-6.09304 -2.294661,-1.06777 -4.990416,-1.83202 -5.21419,-1.4782 -0.272088,0.43022 -0.670195,3.21633 -0.915125,6.40449 -0.39185,5.10037 -1.420827,6.69654 -5.695101,8.83418 -3.374202,1.68751 -4.717825,2.02897 -7.983683,2.02897 -2.585201,0 -2.95777,-0.0519 -3.991842,-0.55727 -0.784862,-0.38348 -1.140528,-0.69307 -1.140528,-0.99275 0,-0.36645 0.289325,-0.49128 1.824845,-0.78732 4.375466,-0.84354 8.62182,-3.91576 10.643359,-7.70041 1.094749,-2.04955 2.607831,-6.79165 2.167035,-6.79165 -0.07061,0 -0.719439,0.15046 -1.441931,0.33436 -2.594615,0.66041 -6.549084,0.27182 -8.080905,-0.79407 -1.088968,-0.75774 -1.491849,-3.31232 -0.746572,-4.73393 0.423895,-0.80858 0.70678,-1.03942 1.27978,-1.04433 0.274647,-0.003 0.399181,0.17044 0.399181,0.55387 0,0.30649 0.09906,0.55726 0.220139,0.55726 0.602071,0 2.784753,-0.88558 6.426361,-2.60739 l 4.023279,-1.90226 0.247012,-1.25594 c 0.306059,-1.55608 0.439258,-2.95877 0.272022,-2.86445 -3.397452,1.91606 -3.945351,0.90711 -1.270093,-2.33888 1.406163,-1.70616 1.707605,-2.21183 1.710773,-2.86983 0.0052,-1.00016 0.130845,-1.12249 0.872528,-0.84692 0.500995,0.18613 0.656785,0.14041 0.997941,-0.29287 0.22235,-0.28239 0.401406,-0.5636 0.397902,-0.62489 -0.0039,-0.0613 -0.595747,-0.38388 -1.316079,-0.71684 -3.071997,-1.41997 -6.553287,-5.70087 -5.398004,-6.63783 0.184926,-0.14997 1.016098,-0.31195 1.847062,-0.35994 2.245015,-0.12967 4.039004,-0.64465 6.708379,-1.92569 1.66233,-0.79777 2.722047,-1.4766 3.463781,-2.21883 1.013434,-1.01414 1.131825,-1.06942 2.290134,-1.06942 2.828451,0 6.205367,1.43851 7.286047,3.10374 0.673467,1.03774 0.830576,2.16172 0.409592,2.9304 -0.130186,0.23771 -0.82305,0.72332 -1.539698,1.07914 -1.520867,0.75513 -4.782781,3.07299 -9.327384,6.6279 l -3.234174,2.52988 0.791056,1.28226 c 0.435081,0.70523 0.916781,1.70251 1.07045,2.21618 l 0.279406,0.93394 3.304241,-1.49813 c 1.817331,-0.82397 4.433362,-2.08421 5.813389,-2.80053 3.093954,-1.60595 3.509948,-1.72847 4.957867,-1.46014 1.536881,0.28482 2.974355,1.01165 4.191645,2.1194 1.8022,1.64005 1.32144,2.44312 -2.177373,3.63706 -2.759602,0.94168 -6.338218,2.44792 -9.688133,4.07771 -3.433443,1.67042 -6.522225,3.34161 -6.522225,3.52886 0,0.078 0.38493,0.32078 0.855393,0.53962 2.262343,1.05234 7.547517,4.99272 10.26117,7.65028 1.87784,1.83903 4.685685,3.93888 6.751698,5.04927 0.7736,0.41576 2.89492,1.27447 4.71405,1.90822 4.78922,1.6685 9.05118,3.75042 10.41875,5.08946 1.41963,1.39 2.09657,2.58757 1.76209,3.11729 -0.1343,0.21272 -0.80002,0.57798 -1.47935,0.81168 -1.6547,0.56924 -7.98685,0.71777 -10.33998,0.24253 z"
       id="path1725"
       inkscape:connector-curvature="0" />
  </g>
</svg>
