<?xml version="1.0" encoding="UTF-8" standalone="no"?>
<!-- Created with Inkscape (http://www.inkscape.org/) -->

<svg
   xmlns:dc="http://purl.org/dc/elements/1.1/"
   xmlns:cc="http://creativecommons.org/ns#"
   xmlns:rdf="http://www.w3.org/1999/02/22-rdf-syntax-ns#"
   xmlns:svg="http://www.w3.org/2000/svg"
   xmlns="http://www.w3.org/2000/svg"
   xmlns:sodipodi="http://sodipodi.sourceforge.net/DTD/sodipodi-0.dtd"
   xmlns:inkscape="http://www.inkscape.org/namespaces/inkscape"
   width="1000"
   height="1000"
   id="svg3173"
   version="1.1"
   inkscape:version="0.47 r22583"
   sodipodi:docname="6d17.svg"
   inkscape:export-filename="E:\chinese\yan\6d17.png"
   inkscape:export-xdpi="18.005705"
   inkscape:export-ydpi="18.005705">
  <title
     id="title5912">Zheng</title>
  <defs
     id="defs3175">
    <inkscape:perspective
       sodipodi:type="inkscape:persp3d"
       inkscape:vp_x="0 : 526.18109 : 1"
       inkscape:vp_y="0 : 1000 : 0"
       inkscape:vp_z="744.09448 : 526.18109 : 1"
       inkscape:persp3d-origin="372.04724 : 350.78739 : 1"
       id="perspective3181" />
    <inkscape:perspective
       id="perspective3191"
       inkscape:persp3d-origin="0.5 : 0.33333333 : 1"
       inkscape:vp_z="1 : 0.5 : 1"
       inkscape:vp_y="0 : 1000 : 0"
       inkscape:vp_x="0 : 0.5 : 1"
       sodipodi:type="inkscape:persp3d" />
    <inkscape:perspective
       id="perspective4006"
       inkscape:persp3d-origin="0.5 : 0.33333333 : 1"
       inkscape:vp_z="1 : 0.5 : 1"
       inkscape:vp_y="0 : 1000 : 0"
       inkscape:vp_x="0 : 0.5 : 1"
       sodipodi:type="inkscape:persp3d" />
    <inkscape:perspective
       id="perspective4034"
       inkscape:persp3d-origin="0.5 : 0.33333333 : 1"
       inkscape:vp_z="1 : 0.5 : 1"
       inkscape:vp_y="0 : 1000 : 0"
       inkscape:vp_x="0 : 0.5 : 1"
       sodipodi:type="inkscape:persp3d" />
    <inkscape:perspective
       id="perspective4081"
       inkscape:persp3d-origin="0.5 : 0.33333333 : 1"
       inkscape:vp_z="1 : 0.5 : 1"
       inkscape:vp_y="0 : 1000 : 0"
       inkscape:vp_x="0 : 0.5 : 1"
       sodipodi:type="inkscape:persp3d" />
    <inkscape:perspective
       id="perspective4147"
       inkscape:persp3d-origin="0.5 : 0.33333333 : 1"
       inkscape:vp_z="1 : 0.5 : 1"
       inkscape:vp_y="0 : 1000 : 0"
       inkscape:vp_x="0 : 0.5 : 1"
       sodipodi:type="inkscape:persp3d" />
    <inkscape:perspective
       id="perspective3758"
       inkscape:persp3d-origin="0.5 : 0.33333333 : 1"
       inkscape:vp_z="1 : 0.5 : 1"
       inkscape:vp_y="0 : 1000 : 0"
       inkscape:vp_x="0 : 0.5 : 1"
       sodipodi:type="inkscape:persp3d" />
    <inkscape:perspective
       id="perspective3719"
       inkscape:persp3d-origin="0.5 : 0.33333333 : 1"
       inkscape:vp_z="1 : 0.5 : 1"
       inkscape:vp_y="0 : 1000 : 0"
       inkscape:vp_x="0 : 0.5 : 1"
       sodipodi:type="inkscape:persp3d" />
    <inkscape:perspective
       id="perspective3803"
       inkscape:persp3d-origin="0.5 : 0.33333333 : 1"
       inkscape:vp_z="1 : 0.5 : 1"
       inkscape:vp_y="0 : 1000 : 0"
       inkscape:vp_x="0 : 0.5 : 1"
       sodipodi:type="inkscape:persp3d" />
    <inkscape:perspective
       id="perspective3746"
       inkscape:persp3d-origin="0.5 : 0.33333333 : 1"
       inkscape:vp_z="1 : 0.5 : 1"
       inkscape:vp_y="0 : 1000 : 0"
       inkscape:vp_x="0 : 0.5 : 1"
       sodipodi:type="inkscape:persp3d" />
    <inkscape:perspective
       id="perspective3794"
       inkscape:persp3d-origin="0.5 : 0.33333333 : 1"
       inkscape:vp_z="1 : 0.5 : 1"
       inkscape:vp_y="0 : 1000 : 0"
       inkscape:vp_x="0 : 0.5 : 1"
       sodipodi:type="inkscape:persp3d" />
    <inkscape:perspective
       id="perspective3830"
       inkscape:persp3d-origin="0.5 : 0.33333333 : 1"
       inkscape:vp_z="1 : 0.5 : 1"
       inkscape:vp_y="0 : 1000 : 0"
       inkscape:vp_x="0 : 0.5 : 1"
       sodipodi:type="inkscape:persp3d" />
    <inkscape:perspective
       id="perspective3859"
       inkscape:persp3d-origin="0.5 : 0.33333333 : 1"
       inkscape:vp_z="1 : 0.5 : 1"
       inkscape:vp_y="0 : 1000 : 0"
       inkscape:vp_x="0 : 0.5 : 1"
       sodipodi:type="inkscape:persp3d" />
    <inkscape:perspective
       id="perspective3893"
       inkscape:persp3d-origin="0.5 : 0.33333333 : 1"
       inkscape:vp_z="1 : 0.5 : 1"
       inkscape:vp_y="0 : 1000 : 0"
       inkscape:vp_x="0 : 0.5 : 1"
       sodipodi:type="inkscape:persp3d" />
  </defs>
  <sodipodi:namedview
     id="base"
     pagecolor="#ffffff"
     bordercolor="#666666"
     borderopacity="1.0"
     inkscape:pageopacity="0.0"
     inkscape:pageshadow="2"
     inkscape:zoom="0.49497475"
     inkscape:cx="289.68073"
     inkscape:cy="516.9897"
     inkscape:document-units="px"
     inkscape:current-layer="g4143"
     showgrid="false"
     inkscape:window-width="1440"
     inkscape:window-height="840"
     inkscape:window-x="-4"
     inkscape:window-y="-4"
     inkscape:window-maximized="1" />
  <metadata
     id="metadata3178">
    <rdf:RDF>
      <cc:Work
         rdf:about="">
        <dc:format>image/svg+xml</dc:format>
        <dc:type
           rdf:resource="http://purl.org/dc/dcmitype/StillImage" />
        <dc:title>Zheng</dc:title>
        <dc:date>2010-08-21</dc:date>
        <dc:creator>
          <cc:Agent>
            <dc:title>Alex Amies</dc:title>
          </cc:Agent>
        </dc:creator>
        <dc:rights>
          <cc:Agent>
            <dc:title>@ Alex Amies 2010</dc:title>
          </cc:Agent>
        </dc:rights>
        <dc:publisher>
          <cc:Agent>
            <dc:title>chinesenotes.com</dc:title>
          </cc:Agent>
        </dc:publisher>
        <dc:source>Yan Qin Ceremonial Inscription</dc:source>
        <dc:language>Chinese 中文</dc:language>
        <dc:description>Tracing from Tang Dynasty Ceremonial Inscription by Yan Zhenqing 颜真卿 (709－785)</dc:description>
        <cc:license
           rdf:resource="http://creativecommons.org/licenses/by/3.0/" />
      </cc:Work>
      <cc:License
         rdf:about="http://creativecommons.org/licenses/by/3.0/">
        <cc:permits
           rdf:resource="http://creativecommons.org/ns#Reproduction" />
        <cc:permits
           rdf:resource="http://creativecommons.org/ns#Distribution" />
        <cc:requires
           rdf:resource="http://creativecommons.org/ns#Notice" />
        <cc:requires
           rdf:resource="http://creativecommons.org/ns#Attribution" />
        <cc:permits
           rdf:resource="http://creativecommons.org/ns#DerivativeWorks" />
      </cc:License>
    </rdf:RDF>
  </metadata>
  <g
     inkscape:label="Layer 1"
     inkscape:groupmode="layer"
     id="layer1"
     transform="translate(0,-52.362183)">
    <g
       transform="matrix(4.7609464,0,0,4.7609464,-1421.6669,-3910.0295)"
       id="g4143"
       style="fill:#000000;fill-opacity:1">
      <path
         style="fill:none;stroke:#000000;stroke-width:1px;stroke-linecap:butt;stroke-linejoin:miter;stroke-opacity:1"
         d="m 417.77871,850.60631 0,0 z"
         id="path4371" />
      <path
         style="fill:#000000;stroke:#000000;stroke-width:4.76094626999999980px;stroke-linecap:butt;stroke-linejoin:miter;stroke-opacity:1;fill-opacity:1"
         d="M 564.09375 87.15625 C 561.13336 87.309647 558.85232 88.336037 559.28125 92.75 C 554.12956 146.91333 553.67881 202.12178 553.6875 257.25 C 545.88504 259.8031 538.0709 262.22327 530.28125 264.5 C 510.19391 274.34892 488.63543 264.25436 468.75 265.84375 C 465.76451 267.28689 462.13773 269.04036 458.59375 271.0625 C 449.28958 257.81534 430.7296 246.92493 421.5625 236.125 C 415.61336 227.99764 411.14487 215.27382 404.125 211.4375 C 382.82205 215.60328 355.20513 306.52477 340.15625 331.71875 C 327.15396 351.30128 303.63735 369.01165 295.3125 386.5625 C 293.31485 390.77408 303.78166 397.05142 308.90625 396.75 C 321.38464 396.016 335.23939 388.38792 347.28125 381.375 C 364.53625 371.32607 382.95628 363.2098 399.09375 351.28125 C 417.39595 337.53356 436.32152 323.49955 452 306.59375 C 456.26172 311.41068 461.56878 315.62685 466.96875 317.96875 C 478.88902 323.13847 490.71914 318.97969 502.4375 316.65625 C 519.84077 312.667 536.86817 307.50436 553.71875 301.75 C 553.70539 318.89032 553.61345 335.99437 553.34375 353.03125 C 551.77664 374.97093 550.22336 396.93537 548.65625 418.875 C 544.11074 427.15411 535.25241 434.62752 535.1875 444.21875 C 479.00015 465.21743 420.8079 479.72403 363.375 497.0625 L 332.71875 512.375 C 329.88484 518.04281 321.75458 524.74807 324.21875 529.375 C 329.88666 540.01743 334.46591 559.46618 353.46875 553.34375 C 372.05258 552.40356 389.53097 544.68487 407.125 539.1875 C 444.38888 524.99104 481.62727 510.6705 518.8125 496.25 C 492.25527 546.62382 467.335 598.5003 435.84375 645.71875 C 409.51043 685.20337 376.30687 720.08104 344.71875 755.75 C 336.57725 764.94334 326.56699 774.43182 322.5 785.375 C 320.55996 790.59528 320.12381 798.25923 328.875 795.125 C 338.35362 791.73025 351.62996 795.44054 358.84375 788.875 C 428.55691 732.1019 474.90816 656.87071 524.71875 583.90625 C 544.7551 537.00583 597.7299 507.06426 620.0625 463.0625 C 620.48193 461.55191 619.75721 459.4643 618.375 457.4375 C 637.42096 449.99517 656.46109 442.57118 675.5 435.125 C 693.9232 434.02527 712.95224 437.72695 731.21875 432.25 C 747.92877 426.58262 743.74707 403.45174 733.96875 391.75 C 724.73551 380.40538 716.89261 362.32333 700.09375 363.09375 C 681.20198 366.37837 665.86479 381.88574 648.5 390.1875 C 632.1245 399.65579 616.24217 410.26034 599.15625 418.3125 C 608.24073 371.91309 614.10006 324.76266 618.78125 277.5 C 637.22028 270.4084 655.69623 263.43023 674.46875 257.34375 C 682.01475 255.07178 691.07608 262.09114 698.28125 260.71875 C 702.97845 259.82403 709.73697 255.08928 710.1875 250.53125 C 708.95784 234.48053 700.06223 216.95266 689.78125 204.625 C 680.06459 198.9749 666.83433 205.25757 657.6875 212.53125 C 646.52324 218.8217 634.96224 224.68543 623.15625 230.15625 C 624.40813 215.82651 625.62331 201.50935 626.84375 187.21875 C 626.90279 170.69089 627.19051 154.11009 626.46875 137.59375 C 615.50158 120.78628 593.38819 85.675687 569.75 87.3125 C 567.89636 87.307144 565.86998 87.064212 564.09375 87.15625 z M 177.71875 125.59375 C 171.20585 125.66385 164.73028 126.41232 158.5 127.90625 C 150.86049 129.73807 148.01376 138.6772 142.28125 143.40625 C 136.95989 147.79613 129.08125 150.37254 125.28125 155.3125 C 123.41344 157.74068 122.86831 163.42504 125.28125 165.5 C 138.00988 176.44556 157.00751 183.65395 167.53125 199.09375 C 179.8323 217.14102 192.43854 238.29327 211.40625 247.96875 C 230.81949 257.87147 257.82998 253.9031 277.78125 241.875 C 289.3653 234.89131 302.17945 226.22544 306.59375 213.5 C 301.62604 193.47089 269.90233 189.50891 255.5625 173.8125 C 244.71211 159.51662 233.82306 142.86107 218.34375 134.8125 C 206.47927 128.64349 192.04713 125.43953 177.71875 125.59375 z M 118.46875 388.25 C 92.064065 390.85071 71.886207 415.10205 70.84375 440.96875 C 74.167605 451.99496 82.307818 463.19741 91.28125 472.03125 C 104.87842 489.93917 120.51695 502.97404 143.96875 503.875 C 164.83336 498.18576 192.03999 490.06666 208.59375 474.96875 C 217.96758 459.62546 217.53921 437.40904 212.3125 420.53125 C 210.16122 415.30411 212.77004 405.51494 209.0625 403.9375 C 203.77076 401.686 195.8816 405.17667 189.375 406.21875 C 181.0592 407.55058 173.4161 404.09073 165.625 402.09375 C 149.76714 398.02914 133.89155 388.87983 118.46875 388.25 z M 630.28125 512.375 C 606.30984 514.9153 610.99455 547.44414 599.4375 563.09375 C 565.81151 648.56069 550.55135 735.21369 557 826.0625 C 576.99259 886.9112 671.98651 903.67459 727.59375 898.6875 C 789.92006 887.44024 867.90451 892.15174 909.8125 836.3125 C 918.47771 814.71447 938.98995 789.33777 924.03125 766.0625 C 904.48866 758.21865 899.0339 739.19625 894.75 719.625 C 885.6464 701.71199 889.48144 672.94324 878.3125 660.46875 C 860.17463 671.0172 872.55533 698.36446 864.90625 715.6875 C 862.09572 738.61222 859.28519 761.5213 856.40625 784.4375 C 781.13997 809.19066 697.795 816.6485 620.0625 799.75 C 596.03853 775.61914 600.48117 738.42429 610.1875 708.875 C 620.58365 675.71815 633.09154 643.11086 649.90625 612.625 C 661.50058 596.27729 677.3825 577.86514 667.28125 556.4375 C 659.54709 538.44417 647.50069 522.32609 630.28125 512.375 z M 210.28125 687.53125 C 182.86215 721.2845 153.29959 754.76552 129.90625 791.71875 C 121.20914 806.02673 109.11508 818.43167 100.75 832.625 C 89.501407 887.4354 143.52557 902.2746 185.78125 898.21875 C 191.92097 897.69838 196.64195 892.95841 201.9375 890.09375 C 229.84526 878.04951 205.33917 835.84118 205.15625 812.125 C 205.77298 786.55562 203.04461 760.41185 207.09375 735.34375 C 208.8662 724.37044 219.88517 714.58137 220.5 704.53125 C 220.86278 698.60168 207.32527 693.4432 210.28125 687.53125 z "
         transform="matrix(0.21004227,0,0,0.21004227,298.61015,832.26975)"
         id="path4361" />
    </g>
  </g>
</svg>
